<svg xmlns="http://www.w3.org/2000/svg" width="24" height="24" viewBox="0 0 24 24" fill="none">
  <g transform="skewX(-12) translate(3, 0)">
    <path d="M7 4h6.5c1.5 0 2.7.4 3.5 1.2.8.8 1.2 1.8 1.2 3 0 .9-.2 1.6-.7 2.2-.4.6-1 1-1.7 1.2v.1c.9.2 1.6.6 2.1 1.3.5.7.8 1.5.8 2.5 0 1.3-.5 2.4-1.4 3.2-.9.8-2.2 1.3-3.8 1.3H7V4zm2.8 6.8h3.4c.8 0 1.5-.2 1.9-.6.5-.4.7-.9.7-1.6 0-.6-.2-1.1-.6-1.5-.4-.4-1-.5-1.8-.5H9.8v4.2zm0 2.4v4.6h3.8c.9 0 1.5-.2 2-.7.5-.4.7-1 .7-1.7 0-.7-.3-1.2-.7-1.6-.5-.4-1.2-.6-2-.6H9.8z"
      fill="currentColor" opacity="0.95"/>
  </g>
</svg>
